<svg width="24" height="24" viewBox="0 0 24 24" fill="none" xmlns="http://www.w3.org/2000/svg">
<path d="M11.9789 2.00291C13.9216 2.0032 15.8223 2.56718 17.4496 3.62618C19.0769 4.68519 20.3607 6.19354 21.1446 7.96763C21.9285 9.74171 22.1788 11.705 21.8649 13.6185C21.5511 15.532 20.6866 17.3131 19.3769 18.7451C18.0671 20.1771 16.3684 21.1981 14.4877 21.6839C12.607 22.1697 10.6254 22.0993 8.78401 21.4813C6.94266 20.8633 5.32104 19.7243 4.11655 18.2031C2.91206 16.6818 2.17666 14.8438 1.99988 12.9129C1.98803 12.7821 1.9505 12.6549 1.88941 12.5386C1.82832 12.4223 1.74487 12.3191 1.64383 12.235C1.5428 12.1508 1.42615 12.0874 1.30054 12.0483C1.17494 12.0091 1.04285 11.9951 0.911799 12.0069C0.780752 12.0187 0.653321 12.0562 0.536781 12.1172C0.420241 12.1781 0.316875 12.2614 0.232584 12.3623C0.148293 12.4631 0.0847288 12.5795 0.0455196 12.7049C0.00631038 12.8303 -0.00777578 12.9621 0.0040658 13.0929C0.256056 15.843 1.45068 18.4222 3.38642 20.3954C5.32215 22.3686 7.88053 23.615 10.63 23.9244C13.3794 24.2338 16.1516 23.5873 18.479 22.0939C20.8063 20.6004 22.5464 18.3515 23.4056 15.7264C24.2648 13.1014 24.1906 10.2609 23.1955 7.68413C22.2004 5.10735 20.3452 2.95199 17.9431 1.58165C15.5409 0.211306 12.7387 -0.290155 10.0091 0.16186C7.27959 0.613874 4.78978 1.9917 2.95971 4.06291V1.00291C2.95971 0.737696 2.85415 0.483343 2.66625 0.295807C2.47836 0.108271 2.22352 0.00291409 1.9578 0.00291409C1.69207 0.00291409 1.43723 0.108271 1.24934 0.295807C1.06144 0.483343 0.955883 0.737696 0.955883 1.00291V7.0029C0.955883 7.13439 0.981864 7.26459 1.03234 7.38605C1.08282 7.5075 1.1568 7.61783 1.25004 7.71072C1.34329 7.8036 1.45398 7.87722 1.57577 7.92735C1.69756 7.97749 1.82806 8.00316 1.9598 8.0029H7.97127C8.237 8.0029 8.49184 7.89754 8.67973 7.71001C8.86763 7.52247 8.97319 7.26812 8.97319 7.0029C8.97319 6.73769 8.86763 6.48333 8.67973 6.2958C8.49184 6.10826 8.237 6.0029 7.97127 6.0029H3.96362C4.89688 4.76094 6.10703 3.75291 7.49824 3.05864C8.88945 2.36436 10.4235 2.00291 11.9789 2.00291ZM11.9789 7.0029C11.9789 6.73769 11.8734 6.48333 11.6855 6.2958C11.4976 6.10826 11.2427 6.0029 10.977 6.0029C10.7113 6.0029 10.4564 6.10826 10.2686 6.2958C10.0807 6.48333 9.9751 6.73769 9.9751 7.0029V13.0029C9.9751 13.2681 10.0807 13.5225 10.2686 13.71C10.4564 13.8975 10.7113 14.0029 10.977 14.0029H14.9847C15.2504 14.0029 15.5052 13.8975 15.6931 13.71C15.881 13.5225 15.9866 13.2681 15.9866 13.0029C15.9866 12.7377 15.881 12.4833 15.6931 12.2958C15.5052 12.1082 15.2504 12.0029 14.9847 12.0029H11.9789V7.0029Z" fill="#9DB2CE"/>
</svg>
