<svg width="34" height="34" viewBox="0 0 34 34" fill="none" xmlns="http://www.w3.org/2000/svg">
<path fill-rule="evenodd" clip-rule="evenodd" d="M9.16834 0H10.5245C10.9109 0 11.2815 0.15352 11.5548 0.426787C11.8281 0.700054 11.9816 1.07068 11.9816 1.45714C11.9816 1.8436 11.8281 2.21423 11.5548 2.4875C11.2815 2.76077 10.9109 2.91429 10.5245 2.91429H9.22857C7.84526 2.91429 6.89326 2.91429 6.15886 2.97646C5.43806 3.03474 5.05143 3.1416 4.77166 3.28537C4.13168 3.61138 3.61138 4.13168 3.28537 4.77166C3.1416 5.05143 3.0328 5.43806 2.97451 6.15691C2.91623 6.8952 2.91429 7.84526 2.91429 9.22857V10.5245C2.91429 10.9109 2.76077 11.2815 2.4875 11.5548C2.21423 11.8281 1.8436 11.9816 1.45714 11.9816C1.07068 11.9816 0.700054 11.8281 0.426787 11.5548C0.15352 11.2815 0 10.9109 0 10.5245V9.16834C0 7.85886 -1.15803e-07 6.79029 0.0718856 5.91989C0.143771 5.02034 0.301143 4.20629 0.687772 3.44857C1.29309 2.26077 2.25883 1.29503 3.44663 0.689714C4.20629 0.301143 5.02034 0.145714 5.91989 0.0718856C6.79029 -1.15803e-07 7.85886 0 9.16834 0ZM27.8431 2.97646C27.1029 2.91429 26.1547 2.91429 24.7714 2.91429H23.4755C23.0891 2.91429 22.7185 2.76077 22.4452 2.4875C22.1719 2.21423 22.0184 1.8436 22.0184 1.45714C22.0184 1.07068 22.1719 0.700054 22.4452 0.426787C22.7185 0.15352 23.0891 0 23.4755 0H24.8317C26.1411 0 27.2117 -1.15803e-07 28.0801 0.0718856C28.9797 0.143771 29.7937 0.301143 30.5534 0.687772C31.7412 1.29309 32.7069 2.25883 33.3122 3.44663C33.6989 4.20629 33.8562 5.02034 33.9281 5.91989C34 6.78834 34 7.85886 34 9.16834V10.5245C34 10.9109 33.8465 11.2815 33.5732 11.5548C33.2999 11.8281 32.9293 11.9816 32.5429 11.9816C32.1564 11.9816 31.7858 11.8281 31.5125 11.5548C31.2392 11.2815 31.0857 10.9109 31.0857 10.5245V9.22857C31.0857 7.84526 31.0857 6.89326 31.0235 6.15886C30.9653 5.43806 30.8584 5.05143 30.7146 4.77166C30.3886 4.13168 29.8683 3.61138 29.2283 3.28537C28.9486 3.1416 28.5619 3.03474 27.8431 2.97646ZM1.45714 22.0184C1.8436 22.0184 2.21423 22.1719 2.4875 22.4452C2.76077 22.7185 2.91429 23.0891 2.91429 23.4755V24.7714C2.91429 26.1547 2.91429 27.1067 2.97646 27.8411C3.03474 28.5619 3.1416 28.9486 3.28537 29.2303C3.61177 29.8695 4.13051 30.3882 4.77166 30.7146C5.05143 30.8584 5.43806 30.9672 6.15691 31.0255C6.8952 31.0838 7.84526 31.0857 9.22857 31.0857H10.5245C10.9109 31.0857 11.2815 31.2392 11.5548 31.5125C11.8281 31.7858 11.9816 32.1564 11.9816 32.5429C11.9816 32.9293 11.8281 33.2999 11.5548 33.5732C11.2815 33.8465 10.9109 34 10.5245 34H9.16834C7.85886 34 6.78834 34 5.91989 33.9281C5.02034 33.8562 4.20629 33.6989 3.44857 33.3122C2.26077 32.7069 1.29503 31.7412 0.689714 30.5534C0.301143 29.7937 0.145714 28.9797 0.0718856 28.0801C-1.15803e-07 27.2117 0 26.1411 0 24.8317V23.4755C0 23.0891 0.15352 22.7185 0.426787 22.4452C0.700054 22.1719 1.07068 22.0184 1.45714 22.0184ZM32.5429 22.0184C32.9293 22.0184 33.2999 22.1719 33.5732 22.4452C33.8465 22.7185 34 23.0891 34 23.4755V24.8317C34 26.1411 34 27.2117 33.9281 28.0801C33.8562 28.9797 33.6989 29.7937 33.3122 30.5534C32.7069 31.7412 31.7412 32.7069 30.5534 33.3122C29.7937 33.6989 28.9797 33.8562 28.0801 33.9281C27.2117 34 26.1411 34 24.8317 34H23.4755C23.0891 34 22.7185 33.8465 22.4452 33.5732C22.1719 33.2999 22.0184 32.9293 22.0184 32.5429C22.0184 32.1564 22.1719 31.7858 22.4452 31.5125C22.7185 31.2392 23.0891 31.0857 23.4755 31.0857H24.7714C26.1547 31.0857 27.1067 31.0857 27.8411 31.0235C28.5619 30.9653 28.9486 30.8584 29.2303 30.7146C29.8695 30.3883 30.3891 29.868 30.7146 29.2283C30.8584 28.9486 30.9672 28.5619 31.0255 27.8431C31.0838 27.1048 31.0857 26.1547 31.0857 24.7714V23.4755C31.0857 23.0891 31.2392 22.7185 31.5125 22.4452C31.7858 22.1719 32.1564 22.0184 32.5429 22.0184Z" fill="white"/>
<path fill-rule="evenodd" clip-rule="evenodd" d="M10.3437 5.82855H11.0276C11.5289 5.82855 11.9874 5.82855 12.3721 5.85964C12.7859 5.89461 13.2386 5.97038 13.6854 6.19964C14.3266 6.52604 14.8473 7.04478 15.1717 7.68592C15.401 8.13278 15.4787 8.58547 15.5117 8.99929C15.5428 9.38398 15.5428 9.84249 15.5428 10.3438V11.0276C15.5428 11.5289 15.5428 11.9874 15.5117 12.3721C15.4852 12.8279 15.3697 13.2741 15.1717 13.6855C14.8462 14.3251 14.3266 14.8454 13.6874 15.1718C13.2405 15.401 12.7859 15.4787 12.3721 15.5118C11.9874 15.5428 11.5289 15.5428 11.0276 15.5428H10.3437C9.84247 15.5428 9.38395 15.5428 8.99926 15.5118C8.54348 15.4852 8.09729 15.3697 7.68589 15.1718C7.04621 14.8462 6.52595 14.3267 6.19961 13.6874C6.00138 13.2754 5.88587 12.8285 5.85961 12.3721C5.82852 11.9874 5.82852 11.5289 5.82852 11.0276V10.3438C5.82852 9.84249 5.82852 9.38398 5.85961 8.99929C5.88612 8.54351 6.00163 8.09732 6.19961 7.68592C6.52562 7.04595 7.04592 6.52565 7.68589 6.19964C8.09729 6.00166 8.54348 5.88615 8.99926 5.85964C9.38395 5.82855 9.84247 5.82855 10.3437 5.82855ZM8.99926 8.79918C9.07623 8.77954 9.155 8.76783 9.23435 8.76421C9.48692 8.74478 9.82498 8.74284 10.3923 8.74284H10.9752C11.5425 8.74284 11.8825 8.74284 12.1331 8.76421C12.2118 8.76796 12.2899 8.77967 12.3662 8.79918C12.453 8.84443 12.5242 8.91487 12.5702 9.00124C12.5899 9.0782 12.6016 9.15697 12.6052 9.23632C12.6246 9.48889 12.6266 9.82695 12.6266 10.3943V10.9771C12.6266 11.5444 12.6266 11.8844 12.6052 12.1351C12.6015 12.2138 12.5897 12.2919 12.5702 12.3682C12.525 12.455 12.4546 12.5261 12.3682 12.5722C12.2912 12.5918 12.2124 12.6036 12.1331 12.6072C11.8805 12.6266 11.5425 12.6286 10.9752 12.6286H10.3923C9.82498 12.6286 9.48498 12.6286 9.23435 12.6072C9.15565 12.6034 9.07754 12.5917 9.00121 12.5722C8.9144 12.527 8.84329 12.4565 8.79721 12.3702C8.77757 12.2932 8.76585 12.2144 8.76224 12.1351C8.74138 11.7495 8.7349 11.3632 8.74281 10.9771V10.3943C8.74281 9.82695 8.74281 9.48695 8.76418 9.23632C8.76793 9.15763 8.77964 9.07951 8.79915 9.00318C8.8444 8.91637 8.91289 8.84526 8.99926 8.79918ZM22.9723 5.82855H23.6562C24.1574 5.82855 24.6159 5.82855 25.0006 5.85964C25.4145 5.89461 25.8672 5.97038 26.316 6.19964C26.9552 6.52604 27.4739 7.04478 27.8003 7.68592C28.0296 8.13278 28.1053 8.58547 28.1403 8.99929C28.1714 9.38398 28.1714 9.84249 28.1714 10.3438V11.0276C28.1714 11.5289 28.1714 11.9874 28.1403 12.3721C28.1138 12.8279 27.9983 13.2741 27.8003 13.6855C27.4743 14.3254 26.954 14.8457 26.314 15.1718C25.8672 15.401 25.4145 15.4787 25.0006 15.5118C24.6159 15.5428 24.1574 15.5428 23.6562 15.5428H22.9723C22.471 15.5428 22.0125 15.5428 21.6278 15.5118C21.172 15.4852 20.7259 15.3697 20.3145 15.1718C19.6748 14.8462 19.1545 14.3267 18.8282 13.6874C18.63 13.2754 18.5144 12.8285 18.4882 12.3721C18.4571 11.9874 18.4571 11.5289 18.4571 11.0276V10.3438C18.4571 9.84249 18.4571 9.38398 18.4882 8.99929C18.5147 8.54351 18.6302 8.09732 18.8282 7.68592C19.1542 7.04595 19.6745 6.52565 20.3145 6.19964C20.7259 6.00166 21.172 5.88615 21.6278 5.85964C22.0125 5.82855 22.471 5.82855 22.9723 5.82855ZM21.6298 8.79918C21.7067 8.77954 21.7855 8.76783 21.8649 8.76421C22.1174 8.74478 22.4555 8.74284 23.0228 8.74284H23.6057C24.173 8.74284 24.513 8.74284 24.7636 8.76421C24.8423 8.76796 24.9204 8.77967 24.9967 8.79918C25.0836 8.84443 25.1547 8.91487 25.2008 9.00124C25.2204 9.0782 25.2321 9.15697 25.2357 9.23632C25.2552 9.48889 25.2571 9.82695 25.2571 10.3943V10.9771C25.2571 11.5444 25.2571 11.8844 25.2357 12.1351C25.232 12.2138 25.2203 12.2919 25.2008 12.3682C25.155 12.4553 25.0838 12.5264 24.9967 12.5722C24.9204 12.5917 24.8423 12.6034 24.7636 12.6072C24.511 12.6266 24.173 12.6286 23.6057 12.6286H23.0228C22.4555 12.6286 22.1155 12.6286 21.8649 12.6072C21.7862 12.6034 21.7081 12.5917 21.6317 12.5722C21.5449 12.527 21.4738 12.4565 21.4277 12.3702C21.4081 12.2932 21.3964 12.2144 21.3927 12.1351C21.3712 11.7495 21.3641 11.3632 21.3714 10.9771V10.3943C21.3714 9.82695 21.3714 9.48695 21.3927 9.23632C21.3965 9.15763 21.4082 9.07951 21.4277 9.00318C21.473 8.91637 21.5434 8.84526 21.6298 8.79918ZM10.3437 18.4571H11.0276C11.5289 18.4571 11.9874 18.4571 12.3721 18.4882C12.7859 18.5232 13.2386 18.5989 13.6854 18.8282C14.3266 19.1527 14.8473 19.6734 15.1717 20.3145C15.401 20.7614 15.4787 21.214 15.5117 21.6279C15.5428 22.0125 15.5428 22.4711 15.5428 22.9723V23.6562C15.5428 24.1575 15.5428 24.616 15.5117 25.0007C15.4855 25.4571 15.3699 25.904 15.1717 26.316C14.8459 26.9549 14.3263 27.4745 13.6874 27.8003C13.2405 28.0296 12.7859 28.1053 12.3721 28.1403C11.9874 28.1714 11.5289 28.1714 11.0276 28.1714H10.3437C9.84247 28.1714 9.38395 28.1714 8.99926 28.1403C8.54348 28.1138 8.09729 27.9983 7.68589 27.8003C7.04592 27.4743 6.52562 26.954 6.19961 26.314C6.00163 25.9026 5.88612 25.4564 5.85961 25.0007C5.82852 24.616 5.82852 24.1575 5.82852 23.6562V22.9723C5.82852 22.4711 5.82852 22.0125 5.85961 21.6279C5.88612 21.1721 6.00163 20.7259 6.19961 20.3145C6.52562 19.6745 7.04592 19.1542 7.68589 18.8282C8.13275 18.5989 8.58544 18.5212 8.99926 18.4882C9.38395 18.4571 9.84247 18.4571 10.3437 18.4571ZM9.00121 21.4277C9.07817 21.4081 9.15694 21.3964 9.23629 21.3928C9.48886 21.3733 9.82692 21.3714 10.3942 21.3714H10.9771C11.5444 21.3714 11.8844 21.3714 12.135 21.3928C12.2137 21.3965 12.2918 21.4082 12.3682 21.4277C12.455 21.473 12.5261 21.5434 12.5722 21.6298C12.5918 21.7068 12.6035 21.7855 12.6072 21.8649C12.6266 22.1175 12.6285 22.4555 12.6285 23.0228V23.6057C12.6285 24.173 12.6285 24.513 12.6072 24.7636C12.6034 24.8423 12.5917 24.9204 12.5722 24.9968C12.5269 25.0836 12.4565 25.1547 12.3701 25.2008C12.2932 25.2204 12.2144 25.2321 12.135 25.2358C11.8825 25.2552 11.5444 25.2571 10.9771 25.2571H10.3942C9.82692 25.2571 9.48692 25.2571 9.23629 25.2358C9.1576 25.232 9.07948 25.2203 9.00315 25.2008C8.91606 25.155 8.84492 25.0839 8.79915 24.9968C8.77964 24.9204 8.76793 24.8423 8.76418 24.7636C8.74267 24.3781 8.73554 23.9918 8.74281 23.6057V23.0228C8.74281 22.4555 8.74281 22.1155 8.76418 21.8649C8.76793 21.7862 8.77964 21.7081 8.79915 21.6317C8.8444 21.5449 8.91484 21.4738 9.00121 21.4277ZM20.4 18.4571C20.7864 18.4571 21.157 18.6106 21.4303 18.8839C21.7036 19.1572 21.8571 19.5278 21.8571 19.9143V21.3714C21.8571 21.6395 22.0747 21.8571 22.3428 21.8571H25.2571C27.1339 21.8571 28.6571 23.3803 28.6571 25.2571V26.7143C28.6571 27.1007 28.5036 27.4714 28.2303 27.7446C27.957 28.0179 27.5864 28.1714 27.2 28.1714C26.8135 28.1714 26.4429 28.0179 26.1696 27.7446C25.8963 27.4714 25.7428 27.1007 25.7428 26.7143V25.2571C25.7428 25.1283 25.6916 25.0048 25.6005 24.9137C25.5095 24.8226 25.3859 24.7714 25.2571 24.7714H22.3428C21.4411 24.7714 20.5763 24.4132 19.9386 23.7756C19.301 23.1379 18.9428 22.2731 18.9428 21.3714V19.9143C18.9428 19.5278 19.0963 19.1572 19.3696 18.8839C19.6429 18.6106 20.0135 18.4571 20.4 18.4571Z" fill="white"/>
</svg>
